<svg width="500" height="500" viewBox="0 0 500 500" fill="none" xmlns="http://www.w3.org/2000/svg">
<path d="M333.215 268.588L219.252 417.291C211.375 427.57 198.639 427.57 190.845 417.291L171.908 392.58C164.031 382.302 164.031 365.683 171.908 355.514L252.687 250.109L171.908 144.705C164.031 134.427 164.031 117.807 171.908 107.638L190.762 82.7085C198.639 72.4305 211.375 72.4305 219.168 82.7085L333.131 231.412C341.092 241.69 341.092 258.31 333.215 268.588ZM494.103 231.412L380.14 82.7085C372.264 72.4305 359.527 72.4305 351.734 82.7085L332.796 107.42C324.919 117.698 324.919 134.317 332.796 144.486L413.491 250L332.712 355.405C324.835 365.683 324.835 382.302 332.712 392.471L351.65 417.291C359.527 427.57 372.264 427.57 380.057 417.291L494.019 268.588C501.98 258.31 501.98 241.69 494.103 231.412Z" fill="#5F928F"/>
<path d="M167.215 268.588L53.2523 417.291C45.3755 427.57 32.6385 427.57 24.8455 417.291L5.90761 392.58C-1.9692 382.302 -1.9692 365.683 5.90761 355.514L86.6868 250.109L5.90761 144.705C-1.9692 134.427 -1.9692 117.807 5.90761 107.638L24.7617 82.7085C32.6385 72.4305 45.3755 72.4305 53.1685 82.7085L167.131 231.412C175.092 241.69 175.092 258.31 167.215 268.588ZM328.103 231.412L214.14 82.7085C206.264 72.4305 193.527 72.4305 185.734 82.7085L166.796 107.42C158.919 117.698 158.919 134.317 166.796 144.486L247.491 250L166.712 355.405C158.835 365.683 158.835 382.302 166.712 392.471L185.65 417.291C193.527 427.57 206.264 427.57 214.057 417.291L328.019 268.588C335.98 258.31 335.98 241.69 328.103 231.412Z" fill="#5F928F"/>
</svg>